<svg xmlns="http://www.w3.org/2000/svg"
 xmlns:xlink="http://www.w3.org/1999/xlink"
 width="61px" height="61px"  viewBox="0 0 61 61">
<path fill-rule="evenodd"  fill="#add136"
 d="M59.033203,19.396606 C58.49939,19.396606 58.06665,18.965149 58.06665,18.432251 C58.06665,18.432251 58.06665,5.4519653 58.06665,5.4519653 C58.06665,5.4519653 47.285522,16.231873 47.285522,16.231873 C48.12213,17.140564 48.888794,18.113708 49.58783,19.137085 C49.58783,19.137085 49.605835,19.11853 49.605835,19.11853 C49.7547,19.33435 49.886597,19.56366 50.029175,19.784424 C50.06421,19.840027 50.099182,19.894165 50.133667,19.949768 C52.69397,23.986694 54.1969,28.760132 54.1969,33.892944 C54.1969,48.311462 42.512268,59.998596 28.09845,59.998596 C13.684631,59.998596 1.9998169,48.311462 1.9998169,33.892944 C1.9998169,19.475952 13.684631,7.7890015 28.09845,7.7890015 C33.56299,7.7890015 38.6308,9.475342 42.822876,12.345093 C42.822876,12.345093 41.442444,13.725952 41.442444,13.725952 C37.62201,11.198486 33.040405,9.719666 28.09845,9.719666 C14.714844,9.719666 3.934204,20.504517 3.934204,33.892944 C3.934204,34.240356 3.9715576,34.57898 3.985962,34.924683 C8.047974,30.862793 16.01123,22.898926 16.01123,22.898926 C16.388733,22.521362 17.000916,22.521362 17.378418,22.898926 C17.378418,22.898926 27.631348,33.15088 27.631348,33.15088 C27.631348,33.15088 56.851746,3.9311523 56.851746,3.9311523 C56.851746,3.9311523 43.56653,3.9311523 43.56653,3.9311523 C43.032654,3.9311523 42.599854,3.4975586 42.599854,2.9646606 C42.599854,2.430542 43.032654,1.9985962 43.56653,1.9985962 C43.56653,1.9985962 59.033203,1.9985962 59.033203,1.9985962 C59.567017,1.9985962 59.999817,2.430542 59.999817,2.9646606 C59.999817,2.9646606 59.999817,18.432251 59.999817,18.432251 C59.999817,18.965149 59.567017,19.396606 59.033203,19.396606 Z"/>
</svg>