<svg xmlns="http://www.w3.org/2000/svg" width="82.77" height="70.39" viewBox="0 0 82.77 70.39">
	<style type="text/css">
		.st2{fill:#308a8e;}
		.st1{fill:#2c8484;}
		.st4{fill:#6a7872;}
		.st3{fill:#30898e;}
		.st6{fill:#8fb5b6;}
		.st5{fill:#9dc3c5;}
		.st7{fill:#aed1d5;}
		.st0{fill:#37919b;}
	</style>
	<path class="st0" d="M11.33,58.79L11.33,65.39C11.33,65.9 11.91,66.32 12.48,66.32L51.95,66.32C52.71,66.32 53.19,65.9 53.19,65.39L53.19,58.79Z"/>
	<path class="st0" d="M50.08,25.58L49.7,25.58L14.91,25.58L14.52,25.58C12.76,25.58 11.33,27.01 11.33,28.77L11.33,53.74C11.33,55.5 12.76,56.93 14.52,56.93L15.08,56.93L49.53,56.93L50.08,56.93C51.85,56.93 53.27,55.5 53.27,53.74L53.27,28.77C53.27,27.01 51.85,25.58 50.08,25.58"/>
	<path class="st1" d="M53.41,53.22L14.52,53.21C12.76,53.21 11.33,53.52 11.33,53.9L11.33,60.5L49.7,60.37L53.22,60.17Z"/>
	<path class="st2" d="M1.52,51.36L11.91,53.79L15.15,48.69C15.15,48.69 18.53,45.21 16.82,41.49C15.1,37.78 11.38,37.63 11.38,37.63L1.9,44.26Z"/>
	<path class="st3" d="M53.41,53.21L53.41,48.69L15.15,48.69L11.91,53.79Z"/>
	<path class="st0" d="M12,48.55C12,45.28 9.31,42.62 6,42.62C2.68,42.62 0,45.28 0,48.55C0,51.1 1.63,53.26 3.91,54.1L3.91,68.71C3.91,70.95 12,70.95 12,68.71L12,48.98C12,48.93 11.99,48.88 11.99,48.83C11.99,48.74 12,48.64 12,48.55"/>
	<path class="st2" d="M63.17,51.36L52.79,53.79L49.55,48.69C49.55,48.69 46.16,45.21 47.88,41.49C49.59,37.78 53.31,37.63 53.31,37.63L62.79,44.26Z"/>
	<path class="st0" d="M52.69,48.55C52.69,45.28 55.38,42.62 58.69,42.62C62.01,42.62 64.7,45.28 64.7,48.55C64.7,51.1 63.07,53.26 60.78,54.1L60.78,68.71C60.78,70.95 52.69,70.95 52.69,68.71L52.69,48.98C52.69,48.93 52.71,48.88 52.71,48.83C52.7,48.74 52.69,48.64 52.69,48.55"/>
	<path class="st4" d="M82.59,68.84L74.15,64.32C74.04,64.17 73.86,64.08 73.67,64.08C73.48,64.07 73.3,64.16 73.18,64.31L64.31,68.88C64.16,69.07 64.13,69.33 64.23,69.54C64.33,69.76 64.55,69.9 64.79,69.9L82.14,69.9L82.15,69.9C82.49,69.9 82.77,69.62 82.77,69.27C82.77,69.1 82.7,68.95 82.59,68.84"/>
	<path class="st4" d="M73.78,67.65C73.15,67.65 72.63,67.14 72.63,66.51L72.63,16.67C72.64,16.52 73.06,10.78 69.44,6.87C67.13,4.36 63.63,3.09 59.05,3.09C58.42,3.09 57.91,2.58 57.91,1.95C57.91,1.31 58.42,0.8 59.05,0.8C64.31,0.8 68.37,2.33 71.14,5.34C75.43,10.01 74.94,16.49 74.92,16.77L74.92,66.51C74.92,67.14 74.41,67.65 73.78,67.65"/>
	<path class="st4" d="M73.78,47.62C72.68,47.62 71.79,48.51 71.79,49.6L71.79,65.48C71.81,65.74 75.79,65.79 75.75,65.31L75.76,49.6C75.76,48.51 74.87,47.62 73.78,47.62"/>
	<path class="st5" d="M74.83,67.25C74.83,67.84 74.35,68.32 73.75,68.32C73.16,68.32 72.68,67.84 72.68,67.25C72.68,66.65 73.16,66.17 73.75,66.17C74.35,66.17 74.83,66.65 74.83,67.25"/>
	<path class="st6" d="M74.46,67.25C74.46,67.64 74.14,67.95 73.75,67.95C73.36,67.95 73.05,67.64 73.05,67.25C73.05,66.85 73.36,66.54 73.75,66.54C74.14,66.54 74.46,66.85 74.46,67.25"/>
	<path class="st7" d="M57.36,15.75L59.02,2.06C59.04,1.87 58.97,1.68 58.84,1.54C58.71,1.41 58.51,1.34 58.33,1.36L44.31,2.95C44.07,2.97 43.87,3.14 43.79,3.36C43.71,3.59 43.77,3.84 43.94,4.01L56.3,16.19L56.3,16.2C56.55,16.44 56.94,16.44 57.18,16.19C57.3,16.07 57.36,15.91 57.36,15.75"/>
	<path class="st7" d="M56.63,2C56.63,0.89 57.52,0 58.63,0C59.73,0 60.63,0.89 60.63,2C60.63,3.1 59.73,4 58.63,4C57.52,4 56.63,3.1 56.63,2"/>
</svg>