<svg xmlns="http://www.w3.org/2000/svg" width="74.99" height="68.97" viewBox="0 0 74.99 68.97">
	<style type="text/css">
		.st2{fill:#63bd6e;}
		.st1{fill:#444545;}
		.st4{fill:#616161;}
		.st3{fill:#117f4a;}
		.st6{fill:#727172;}
		.st5{fill:#717171;}
		.st8{fill:#d6cb78;}
		.st7{fill:#575656;}
		.st9{fill:#ece17e;}
		.st0{fill:#525252;}
	</style>
	<path class="st0" d="M74.4,59.89C74.4,64.19 73.39,64.1 68.89,64.1L8.15,64.1C3.65,64.1 0,60.62 0,56.32L0,19.8C0,15.5 3.65,12.01 8.15,12.01L68.45,12.01C72.96,12.01 74.4,13.56 74.4,17.85Z"/>
	<path class="st1" d="M72.81,58.59C72.81,62.89 71.58,62.81 67.26,62.81L9.39,62.81C5.08,62.81 1.58,59.32 1.58,55.03L1.58,21.8C1.58,17.5 5.08,14.01 9.39,14.01L67.77,14.01C72.08,14.01 72.81,15.99 72.81,20.28Z"/>
	<path class="st2" d="M69.94,18.06L18.71,11.22L15.76,33.39L66.98,40.22Z"/>
	<path class="st3" d="M68.42,19.41L19.82,12.93L17.27,32.03L65.88,38.51ZM66.25,39.09L16.76,32.49L19.45,12.35L68.93,18.95Z"/>
	<path class="st3" d="M51.59,26.89C52.23,22.06 48.84,17.62 44.01,16.98C39.18,16.33 34.75,19.73 34.11,24.56C33.46,29.38 36.85,33.82 41.68,34.46C46.51,35.11 50.95,31.72 51.59,26.89"/>
	<path class="st2" d="M42.7,30.45C43.18,30.44 43.59,30.25 43.95,29.87C44.31,29.5 44.53,29 44.61,28.39C44.69,27.87 44.63,27.43 44.46,27.09C44.29,26.75 43.9,26.41 43.29,26.07ZM43.32,20.43C42.85,20.45 42.46,20.63 42.14,20.96C41.82,21.29 41.63,21.7 41.56,22.19C41.5,22.68 41.56,23.1 41.74,23.46C41.92,23.83 42.27,24.14 42.79,24.41ZM41.65,33L41.84,31.56C41.25,31.39 40.79,31.17 40.45,30.88C40.11,30.6 39.83,30.18 39.63,29.64C39.43,29.09 39.35,28.44 39.4,27.68L40.64,27.58C40.63,28.35 40.72,28.94 40.9,29.34C41.17,29.9 41.54,30.23 42,30.35L42.61,25.78C42.13,25.61 41.66,25.31 41.19,24.89C40.84,24.59 40.6,24.2 40.45,23.72C40.31,23.25 40.28,22.72 40.35,22.14C40.49,21.12 40.9,20.33 41.58,19.78C42.05,19.41 42.68,19.23 43.48,19.24L43.57,18.55L44.28,18.64L44.19,19.33C44.87,19.51 45.39,19.83 45.74,20.28C46.19,20.87 46.41,21.64 46.4,22.56L45.14,22.61C45.14,22.04 45.05,21.58 44.87,21.26C44.69,20.93 44.4,20.69 44.03,20.54L43.47,24.68C44.05,24.94 44.43,25.13 44.62,25.27C44.96,25.51 45.23,25.79 45.42,26.11C45.62,26.42 45.75,26.78 45.83,27.18C45.9,27.59 45.91,28.01 45.85,28.46C45.72,29.46 45.34,30.26 44.73,30.85C44.12,31.44 43.39,31.71 42.55,31.64L42.35,33.09Z"/>
	<path class="st2" d="M56.08,0L9.02,21.36L18.27,41.72L65.32,20.36Z"/>
	<path class="st3" d="M55.52,1.95L10.86,22.22L18.83,39.77L63.49,19.5ZM64.1,19.79L18.64,40.43L10.25,21.93L55.7,1.29Z"/>
	<path class="st3" d="M45.21,17.21C43.19,12.78 37.96,10.81 33.53,12.83C29.09,14.84 27.13,20.07 29.14,24.5C31.16,28.94 36.39,30.9 40.82,28.89C45.26,26.88 47.22,21.65 45.21,17.21"/>
	<path class="st2" d="M39.56,24.94C39.96,24.69 40.21,24.31 40.31,23.79C40.41,23.28 40.34,22.75 40.08,22.18C39.87,21.7 39.6,21.36 39.27,21.17C38.94,20.96 38.43,20.88 37.73,20.92ZM34.77,16.12C34.38,16.39 34.14,16.75 34.05,17.19C33.95,17.64 34.01,18.09 34.21,18.54C34.42,18.99 34.69,19.32 35.04,19.53C35.39,19.74 35.85,19.82 36.43,19.78ZM40.01,27.66L39.41,26.34C38.83,26.51 38.31,26.57 37.88,26.51C37.44,26.45 36.98,26.24 36.52,25.88C36.06,25.53 35.65,25.01 35.29,24.34L36.28,23.6C36.69,24.27 37.07,24.72 37.44,24.96C37.96,25.29 38.45,25.38 38.91,25.24L37,21.04C36.51,21.14 35.95,21.14 35.33,21.04C34.87,20.97 34.46,20.76 34.08,20.43C33.71,20.1 33.4,19.67 33.16,19.15C32.73,18.2 32.66,17.32 32.95,16.49C33.15,15.93 33.59,15.44 34.27,15.02L33.99,14.39L34.64,14.1L34.92,14.73C35.59,14.52 36.2,14.52 36.74,14.71C37.44,14.98 38.03,15.5 38.51,16.3L37.47,17.01C37.16,16.52 36.85,16.18 36.52,16C36.19,15.82 35.83,15.76 35.43,15.84L37.16,19.65C37.78,19.56 38.2,19.52 38.43,19.54C38.85,19.56 39.23,19.66 39.56,19.82C39.9,19.98 40.2,20.22 40.48,20.52C40.75,20.82 40.99,21.17 41.17,21.59C41.59,22.51 41.69,23.38 41.49,24.21C41.28,25.04 40.8,25.65 40.06,26.03L40.66,27.37Z"/>
	<path class="st4" d="M71,63.46C71,67.75 69.29,68.97 65,68.97L4.37,68.97C0.07,68.97 0,68.56 0,64.27L0,20.23C0,20.23 0.04,19.18 0.1,18.52C0.21,17.04 1.29,15.58 1.29,15.58C1.29,15.58 1.94,18.29 3.78,19.04C6.65,20.22 8.89,20.12 8.89,20.12L65,20.12C69.29,20.12 71,20.69 71,24.98Z"/>
	<path class="st5" d="M5.13,23.07L5.13,23.07L1.13,23.07C0.58,23.07 0.13,22.62 0.13,22.07C0.13,21.51 0.58,21.07 1.13,21.07L5.13,21.07C5.68,21.07 6.13,21.52 6.13,22.07C6.13,22.62 5.68,23.07 5.13,23.07"/>
	<path class="st5" d="M21.24,23.08L21.24,23.08L13.19,23.07C12.63,23.07 12.19,22.62 12.19,22.07C12.19,21.52 12.63,21.07 13.19,21.07L21.24,21.08C21.8,21.08 22.24,21.52 22.24,22.08C22.24,22.63 21.8,23.08 21.24,23.08M37.36,23.08L37.35,23.08L29.3,23.08C28.75,23.08 28.3,22.63 28.3,22.08C28.3,21.53 28.75,21.08 29.3,21.08L37.36,21.08C37.91,21.08 38.36,21.53 38.36,22.08C38.35,22.64 37.91,23.08 37.36,23.08M53.47,23.09L53.47,23.09L45.41,23.09C44.86,23.09 44.41,22.64 44.41,22.09C44.41,21.53 44.86,21.09 45.41,21.09L45.41,21.09L53.47,21.09C54.02,21.09 54.47,21.54 54.47,22.09C54.47,22.64 54.02,23.09 53.47,23.09M68.58,25.43C68.15,25.43 67.76,25.16 67.63,24.74C67.34,23.84 66.85,23.1 63.76,23.1L61.52,23.09C60.97,23.09 60.52,22.65 60.52,22.09C60.52,21.54 60.97,21.09 61.52,21.09L63.76,21.1C66.26,21.1 68.69,21.46 69.53,24.13C69.7,24.66 69.41,25.22 68.88,25.39C68.78,25.42 68.68,25.43 68.58,25.43M68.89,41.52C68.33,41.52 67.89,41.07 67.89,40.52L67.89,32.46C67.89,31.91 68.33,31.46 68.89,31.46C69.44,31.46 69.89,31.91 69.89,32.46L69.89,40.52C69.89,41.07 69.44,41.52 68.89,41.52M68.89,57.63C68.33,57.63 67.89,57.18 67.89,56.63L67.89,48.57C67.89,48.02 68.33,47.57 68.89,47.57C69.44,47.57 69.89,48.02 69.89,48.57L69.89,56.63C69.89,57.18 69.44,57.63 68.89,57.63M21.28,67.77L13.22,67.77C12.67,67.77 12.22,67.32 12.22,66.77C12.22,66.22 12.67,65.77 13.22,65.77L21.28,65.77C21.84,65.77 22.28,66.22 22.28,66.77C22.28,67.32 21.84,67.77 21.28,67.77M37.4,67.77L29.34,67.77C28.79,67.77 28.34,67.32 28.34,66.77C28.34,66.22 28.79,65.77 29.34,65.77L37.4,65.77C37.95,65.77 38.4,66.22 38.4,66.77C38.4,67.32 37.95,67.77 37.4,67.77M53.51,67.77L45.45,67.77C44.9,67.77 44.45,67.32 44.45,66.77C44.45,66.22 44.9,65.77 45.45,65.77L53.51,65.77C54.06,65.77 54.51,66.22 54.51,66.77C54.51,67.32 54.06,67.77 53.51,67.77M63.54,67.77L61.56,67.77C61.01,67.77 60.56,67.32 60.56,66.77C60.56,66.22 61.01,65.77 61.56,65.77L63.54,65.77C66.87,65.77 67.42,65.48 67.71,64.41C67.85,63.88 68.4,63.56 68.93,63.7C69.47,63.85 69.79,64.39 69.64,64.93C68.88,67.77 66.29,67.77 63.54,67.77"/>
	<path class="st5" d="M5.13,67.77L1.13,67.77C0.58,67.77 0.13,67.32 0.13,66.77C0.13,66.22 0.58,65.77 1.13,65.77L5.13,65.77C5.68,65.77 6.13,66.22 6.13,66.77C6.13,67.32 5.68,67.77 5.13,67.77"/>
	<path class="st4" d="M67.15,61.56C67.15,65.2 65.87,65.48 62.14,65.48L0.1,65.48L0.1,23.25L62.34,23.28C66.08,23.28 67.15,24.31 67.15,27.96Z"/>
	<path class="st6" d="M74.53,46.22L55.08,46.22C53.82,46.22 51.47,43.97 51.47,39.42C51.47,34.87 53.82,32.74 55.08,32.74L74.53,32.74C75.18,32.74 75.11,46.22 74.53,46.22"/>
	<path class="st7" d="M74.53,47.3L55.08,47.3C53.82,47.3 51.47,45.05 51.47,40.5C51.47,35.95 53.82,33.82 55.08,33.82L74.53,33.82C75.18,33.82 75.11,47.3 74.53,47.3"/>
	<path class="st8" d="M60.13,40.6C60.13,42.24 59,43.57 57.59,43.57C56.19,43.57 55.06,42.24 55.06,40.6C55.06,38.96 56.19,37.63 57.59,37.63C59,37.63 60.13,38.96 60.13,40.6"/>
	<path class="st9" d="M59.64,40.6C59.64,41.92 58.73,43 57.59,43C56.46,43 55.55,41.92 55.55,40.6C55.55,39.28 56.46,38.2 57.59,38.2C58.73,38.2 59.64,39.28 59.64,40.6"/>
</svg>